<svg width="162" height="29" viewBox="0 0 162 29" fill="none" xmlns="http://www.w3.org/2000/svg">
<path fill-rule="evenodd" clip-rule="evenodd" d="M82.9765 3.73834C82.9765 5.67232 84.5443 7.24011 86.4782 7.24011H150.621C156.564 7.24011 161.382 12.0582 161.382 18.0017C161.382 23.9451 156.564 28.7632 150.621 28.7632H11.3792C5.43579 28.7632 0.617676 23.9451 0.617676 18.0017C0.617676 12.0582 5.43579 7.24011 11.3792 7.24011H75.5215C77.4554 7.24011 79.0232 5.67231 79.0232 3.73834V2.21318C79.0232 1.12153 79.9082 0.236572 80.9999 0.236572C82.0915 0.236572 82.9765 1.12153 82.9765 2.21318V3.73834ZM62.6011 22.328C63.0252 22.5427 63.615 22.6487 64.3691 22.6487L64.3731 22.6461H68.8011C69.6825 22.6461 70.3557 22.6024 70.8236 22.5175C71.2901 22.4327 71.6122 22.3373 71.7871 22.2299C71.9621 22.1239 72.0495 22.0431 72.0495 21.99L71.3961 20.9337C71.1629 20.9775 70.5598 21.0172 69.5884 21.0543C68.6169 21.0915 67.2491 21.11 65.4864 21.11H64.833C64.3559 21.11 64.0232 21.0119 63.8376 20.8145C63.6521 20.617 63.5593 20.3373 63.5593 19.9742V15.8921C63.5593 15.134 63.9834 14.7549 64.833 14.7549H65.6454C67.3339 14.7549 68.6209 14.7735 69.5075 14.8106C70.3942 14.849 70.9283 14.8835 71.1085 14.9153L71.4266 13.5873C71.4266 13.5025 71.2318 13.419 70.8448 13.3395C70.4565 13.2586 69.8972 13.2189 69.1642 13.2189H64.3704C63.3393 13.2189 62.5958 13.4627 62.1399 13.9478C61.6826 14.4329 61.4547 15.1883 61.4547 16.2128V19.782C61.4547 20.4129 61.5395 20.9404 61.7091 21.3671C61.8788 21.7952 62.1757 22.1146 62.6011 22.328ZM28.8499 14.5176V22.6487L28.8512 22.65H30.9532V19.5924C31.2395 19.6136 31.6716 19.6401 32.2507 19.6719C32.8286 19.7037 33.4528 19.7196 34.1221 19.7196H35.747C36.3633 19.7196 36.863 19.6269 37.2447 19.44C37.6264 19.2544 37.9193 19.0185 38.1207 18.7362C38.3222 18.4539 38.46 18.1597 38.5342 17.8562C38.6085 17.5527 38.6456 17.277 38.6456 17.0318V16.0868C38.6456 15.7873 38.6191 15.4732 38.566 15.1419C38.513 14.8105 38.3938 14.4991 38.2082 14.2048C38.0227 13.9119 37.7351 13.6747 37.3481 13.4931C36.9597 13.3129 36.4269 13.2214 35.747 13.2214H28.6908L28.8499 14.5176ZM35.2845 18.1822H30.9519V14.7562H35.3004C35.7669 14.7562 36.0916 14.8741 36.2719 15.1087C36.4521 15.3433 36.5422 15.6309 36.5422 15.9729V16.9815C36.5422 17.3128 36.4521 17.5951 36.2719 17.8297C36.0916 18.0643 35.7629 18.1822 35.2845 18.1822ZM12.0603 22.5532C12.4009 22.6168 12.9311 22.6486 13.6534 22.6486H18.9402C19.9488 22.6486 20.6565 22.4021 21.0661 21.9117C21.4756 21.4213 21.6797 20.7759 21.6797 19.9754V19.7196C21.6797 19.0052 21.5525 18.4631 21.298 18.0947C21.0435 17.7262 20.6778 17.4731 20.1993 17.3339C19.7222 17.1948 19.143 17.1259 18.4631 17.1259H14.927C14.4711 17.1259 14.1438 17.0384 13.9476 16.8621C13.7515 16.6858 13.6534 16.4221 13.6534 16.0696V15.7979C13.6627 15.4983 13.7541 15.2505 13.9238 15.053C14.0934 14.8569 14.4221 14.7575 14.9111 14.7575L15.0861 14.7734C16.7322 14.7734 18.0443 14.7919 19.0211 14.829C19.9978 14.8675 20.6247 14.9019 20.9004 14.9337L21.2185 13.5885C21.2185 13.5037 20.9958 13.4228 20.5492 13.3486C20.1025 13.2731 19.5194 13.236 18.7971 13.236H14.4645C13.721 13.236 13.1365 13.3566 12.7124 13.5964C12.2869 13.8377 11.9874 14.1544 11.8125 14.5494C11.6375 14.9443 11.55 15.3764 11.55 15.8456V16.1014C11.55 17.0092 11.7939 17.6626 12.283 18.0629C12.772 18.4631 13.5527 18.6633 14.6249 18.6633H18.3199C18.8501 18.6633 19.1934 18.7428 19.3471 18.9032C19.5008 19.0635 19.5777 19.3299 19.5777 19.7037V20.0244C19.5777 20.4194 19.4823 20.699 19.2914 20.8647C19.1006 21.0303 18.7759 21.1125 18.3199 21.1125H18.0178C16.3187 21.1125 14.9827 21.094 14.0112 21.0569C13.0397 21.0184 12.4314 20.9787 12.1875 20.9362L11.55 22.3292C11.55 22.414 11.721 22.4896 12.0603 22.5532ZM43.4234 22.6486L48.09 13.236H51.2284L55.8791 22.6486H53.4258L52.4862 20.6155H46.7832L45.7481 22.6486H43.4234ZM47.3597 19.0476H51.8977L49.7162 14.6779H49.5571L47.3597 19.0476ZM78.4181 22.6486V13.2359H88.3251V14.772H80.5201V16.9814H86.4776V18.5665H80.5201V21.1112H88.3887L89.0262 22.4723C89.0262 22.5147 88.8831 22.5545 88.5968 22.5929C88.3106 22.63 87.8162 22.6486 87.1151 22.6486H78.4181ZM98.5834 14.7575L98.5993 22.6487H100.701V14.7575H104.859V13.2214H94.4417V14.7575H98.5834ZM111.23 22.6486V13.236H113.332V22.6486H111.23ZM120.819 14.5177V22.6487L120.82 22.6501H122.922V16.6794H123.081L123.719 18.0723L125.725 21.6905H127.652L129.659 18.0723L130.281 16.6794H130.456V22.6501H132.558V13.2374H130.408L126.681 19.6402L123.081 13.2374H120.66L120.819 14.5177ZM139.885 22.6486V13.236H149.792V14.772H141.987V16.9814H147.945V18.5665H141.987V21.1112H149.856L150.493 22.4723C150.493 22.5147 150.35 22.5545 150.064 22.5929C149.778 22.6301 149.283 22.6486 148.582 22.6486H139.885Z" fill="url(#paint0_linear_352_94)"/>
<defs>
<linearGradient id="paint0_linear_352_94" x1="37.8561" y1="-2.96126" x2="130.902" y2="92.2461" gradientUnits="userSpaceOnUse">
<stop offset="0.251308" stop-color="#996DFF"/>
<stop offset="0.623787" stop-color="#FF876E"/>
<stop offset="1" stop-color="#FFD072"/>
</linearGradient>
</defs>
</svg>
