<svg width="123" height="117" viewBox="0 0 123 117" fill="none" xmlns="http://www.w3.org/2000/svg">
<rect width="123" height="117" rx="15" fill="#519D34"/>
<path d="M85.8813 34.9575C82.7107 31.9478 78.9341 29.5614 74.7718 27.9377C70.6096 26.3139 66.145 25.4853 61.6383 25.5C42.7558 25.5 27.3663 39.9625 27.3663 57.7075C27.3663 63.395 28.9571 68.92 31.9313 73.795L27.0896 90.5L45.2458 86.015C50.2604 88.5825 55.8975 89.9475 61.6383 89.9475C80.5208 89.9475 95.9104 75.485 95.9104 57.74C95.9104 49.1275 92.3483 41.035 85.8813 34.9575ZM61.6383 84.4875C56.52 84.4875 51.5054 83.1875 47.1133 80.75L46.0758 80.165L35.2858 82.83L38.1563 72.95L37.4646 71.9425C34.621 67.6752 33.111 62.7425 33.1071 57.7075C33.1071 42.9525 45.9029 30.9275 61.6038 30.9275C69.2121 30.9275 76.3708 33.7225 81.7313 38.7925C84.3855 41.2754 86.4889 44.2287 87.9196 47.4811C89.3503 50.7336 90.0798 54.2206 90.0659 57.74C90.135 72.495 77.3392 84.4875 61.6383 84.4875ZM77.27 64.4675C76.4054 64.0775 72.1863 62.1275 71.4254 61.835C70.63 61.575 70.0767 61.445 69.4888 62.225C68.9008 63.0375 67.2754 64.8575 66.7913 65.3775C66.3071 65.93 65.7883 65.995 64.9238 65.5725C64.0592 65.1825 61.2925 64.305 58.0417 61.575C55.4825 59.43 53.7879 56.7975 53.2692 55.985C52.785 55.1725 53.2 54.75 53.6496 54.3275C54.03 53.97 54.5142 53.385 54.9292 52.93C55.3442 52.475 55.5171 52.1175 55.7938 51.5975C56.0704 51.045 55.9321 50.59 55.7246 50.2C55.5171 49.81 53.7879 45.845 53.0963 44.22C52.4046 42.66 51.6783 42.855 51.1596 42.8225H49.4996C48.9117 42.8225 48.0125 43.0175 47.2171 43.83C46.4563 44.6425 44.2429 46.5925 44.2429 50.5575C44.2429 54.5225 47.3209 58.3575 47.7359 58.8775C48.1509 59.43 53.7879 67.555 62.3646 71.0325C64.405 71.8775 65.9958 72.365 67.2408 72.7225C69.2813 73.34 71.1488 73.2425 72.6358 73.0475C74.2958 72.82 77.7196 71.0975 78.4113 69.2125C79.1375 67.3275 79.1375 65.735 78.8954 65.3775C78.6534 65.02 78.1346 64.8575 77.27 64.4675Z" fill="white"/>
</svg>
